<?xml version="1.0" encoding="utf-8"?>
<svg id="Layer_1" style="enable-background:new 0 0 500 500;" x="0px" y="0px" viewBox="0 0 500 500" xmlns="http://www.w3.org/2000/svg">
  <defs>
    <style type="text/css">
   
    .fil3 {fill:none}
    .fil0 {fill:#FFFA04}
    .fil1 {fill:#212121;fill-rule:nonzero}
    .fil2 {fill:#FFFFFE;fill-rule:nonzero}
   
  </style>
  </defs>
  <style type="text/css">
	.st0{fill:#FFFFFF;}
	.st1{fill:#2AA9E0;}
	.st2{fill:#18FE89;}
	.st3{fill:#00E56B;}
	.st4{fill:#00C963;}
	.st5{fill:#00AC6A;}
</style>
  <g>
    <circle class="st0" cx="-729.5" cy="507" r="133"/>
    <path class="st1" d="M-912,324.5v364.9H-547V324.5H-912z M-656.9,469.8c0.1,1.6,0.1,3.2,0.1,4.8c0,49.5-37.7,106.5-106.5,106.5&#10;&#9;&#9;c-21.1,0-40.8-6.2-57.4-16.8c2.9,0.4,5.9,0.5,8.9,0.5c17.6,0,33.7-6,46.5-16c-16.4-0.3-30.2-11.1-35-26c2.3,0.4,4.6,0.7,7,0.7&#10;&#9;&#9;c3.4,0,6.7-0.4,9.9-1.3c-17.1-3.4-30-18.6-30-36.7c0-0.2,0-0.3,0-0.5c5.1,2.8,10.8,4.5,17,4.7c-10-6.7-16.6-18.2-16.6-31.2&#10;&#9;&#9;c0-6.9,1.8-13.3,5.1-18.8c18.5,22.7,46.1,37.6,77.2,39.1c-0.6-2.7-1-5.6-1-8.5c0-20.7,16.8-37.4,37.4-37.4&#10;&#9;&#9;c10.8,0,20.5,4.5,27.3,11.8c8.5-1.7,16.5-4.8,23.8-9.1c-2.8,8.7-8.7,16.1-16.5,20.7c7.6-0.9,14.8-2.9,21.5-5.9&#10;&#9;&#9;C-643.3,457.9-649.6,464.5-656.9,469.8z"/>
  </g>
  <g id="PROCESSING" transform="matrix(0.924848, 0, 0, 0.924848, 158.33139, 151.46788)">
    <g>
      <g>
        <radialGradient id="SVGID_3_" cx="34185.168" cy="15625.5947" r="104.5887" gradientTransform="matrix(-0.1392 -0.9903 7.2092 -1.0132 -107784.8984 49790.0156)" gradientUnits="userSpaceOnUse">
          <stop offset="0.0056" style="stop-color:#0929E0"/>
          <stop offset="0.5" style="stop-color:#00EFD3"/>
          <stop offset="1" style="stop-color:#0929E0"/>
        </radialGradient>
        <path fill="url(#SVGID_3_)" d="M104.583,209.166C46.916,209.166,0,162.251,0,104.583C0,46.916,46.916,0,104.583,0&#10;&#9;&#9;&#9;&#9;s104.583,46.916,104.583,104.583C209.166,162.251,162.25,209.166,104.583,209.166z M104.583,19.583c-46.866,0-85,38.134-85,85&#10;&#9;&#9;&#9;&#9;c0,46.873,38.134,85,85,85c46.874,0,85-38.127,85-85C189.583,57.717,151.457,19.583,104.583,19.583z"/>
      </g>
    </g>
  </g>
</svg>