<?xml version="1.0" encoding="utf-8"?>
<svg id="Layer_1" style="enable-background:new 0 0 500 500;" x="0px" y="0px" viewBox="0 0 500 500" xmlns="http://www.w3.org/2000/svg">
  <style type="text/css">
	.st0{fill:#FFFFFF;}
	.st1{fill:#2AA9E0;}
	.st2{fill:#18FE89;}
	.st3{fill:#00E56B;}
	.st4{fill:#00C963;}
	.st5{fill:#00AC6A;}
</style>
  <g>
    <circle class="st0" cx="-729.5" cy="507" r="133"/>
    <path class="st1" d="M-912,324.5v364.9H-547V324.5H-912z M-656.9,469.8c0.1,1.6,0.1,3.2,0.1,4.8c0,49.5-37.7,106.5-106.5,106.5&#10;&#9;&#9;c-21.1,0-40.8-6.2-57.4-16.8c2.9,0.4,5.9,0.5,8.9,0.5c17.6,0,33.7-6,46.5-16c-16.4-0.3-30.2-11.1-35-26c2.3,0.4,4.6,0.7,7,0.7&#10;&#9;&#9;c3.4,0,6.7-0.4,9.9-1.3c-17.1-3.4-30-18.6-30-36.7c0-0.2,0-0.3,0-0.5c5.1,2.8,10.8,4.5,17,4.7c-10-6.7-16.6-18.2-16.6-31.2&#10;&#9;&#9;c0-6.9,1.8-13.3,5.1-18.8c18.5,22.7,46.1,37.6,77.2,39.1c-0.6-2.7-1-5.6-1-8.5c0-20.7,16.8-37.4,37.4-37.4&#10;&#9;&#9;c10.8,0,20.5,4.5,27.3,11.8c8.5-1.7,16.5-4.8,23.8-9.1c-2.8,8.7-8.7,16.1-16.5,20.7c7.6-0.9,14.8-2.9,21.5-5.9&#10;&#9;&#9;C-643.3,457.9-649.6,464.5-656.9,469.8z"/>
  </g>
  <g id="XMLID_98_">
    <g id="XMLID_99_">
      <g transform="matrix(0.459229, 0, 0, 0.459229, 137.798645, 127.411125)">
        <path style="fill:#FFFFFF;" d="M388.414,141.241c0-9.71-7.945-17.655-17.655-17.655c-9.71,0-17.655,7.945-17.655,17.655&#10;&#9;&#9;s7.945,17.655,17.655,17.655C380.469,158.897,388.414,150.952,388.414,141.241"/>
        <path style="fill:#FFFFFF;" d="M256,335.448c-42.372,0-79.448-37.076-79.448-79.448s37.076-79.448,79.448-79.448&#10;&#9;&#9;s79.448,37.076,79.448,79.448S298.372,335.448,256,335.448 M256,141.241c-63.559,0-114.759,51.2-114.759,114.759&#10;&#9;&#9;S192.441,370.759,256,370.759S370.759,319.559,370.759,256S319.559,141.241,256,141.241"/>
        <path style="fill:#FFFFFF;" d="M423.724,374.29c0,27.366-22.069,49.434-49.434,49.434H137.71&#10;&#9;&#9;c-27.366,0-49.434-22.069-49.434-49.434V137.71c0-27.366,22.069-49.434,49.434-49.434H374.29c27.366,0,49.434,22.069,49.434,49.434&#10;&#9;&#9;V374.29z M370.759,52.966H141.241c-48.552,0-88.276,39.724-88.276,88.276v229.517c0,48.552,39.724,88.276,88.276,88.276h229.517&#10;&#9;&#9;c48.552,0,88.276-39.724,88.276-88.276V141.241C459.034,92.69,419.31,52.966,370.759,52.966L370.759,52.966z"/>
      </g>
    </g>
  </g>
</svg>