<?xml version="1.0" encoding="utf-8"?>
<!-- Generator: Adobe Illustrator 19.2.1, SVG Export Plug-In . SVG Version: 6.00 Build 0)  -->
<svg version="1.1" id="Layer_1" xmlns="http://www.w3.org/2000/svg" xmlns:xlink="http://www.w3.org/1999/xlink" x="0px" y="0px"
	 viewBox="0 0 500 500" style="enable-background:new 0 0 500 500;" xml:space="preserve">
<style type="text/css">
	.st0{fill:#FFFFFF;}
	.st1{fill:#2AA9E0;}
	.st2{fill:#18FE89;}
	.st3{fill:#00E56B;}
	.st4{fill:#00C963;}
	.st5{fill:#00AC6A;}
</style>
<g>
	<circle class="st0" cx="-729.5" cy="507" r="133"/>
	<path class="st1" d="M-912,324.5v364.9H-547V324.5H-912z M-656.9,469.8c0.1,1.6,0.1,3.2,0.1,4.8c0,49.5-37.7,106.5-106.5,106.5
		c-21.1,0-40.8-6.2-57.4-16.8c2.9,0.4,5.9,0.5,8.9,0.5c17.6,0,33.7-6,46.5-16c-16.4-0.3-30.2-11.1-35-26c2.3,0.4,4.6,0.7,7,0.7
		c3.4,0,6.7-0.4,9.9-1.3c-17.1-3.4-30-18.6-30-36.7c0-0.2,0-0.3,0-0.5c5.1,2.8,10.8,4.5,17,4.7c-10-6.7-16.6-18.2-16.6-31.2
		c0-6.9,1.8-13.3,5.1-18.8c18.5,22.7,46.1,37.6,77.2,39.1c-0.6-2.7-1-5.6-1-8.5c0-20.7,16.8-37.4,37.4-37.4
		c10.8,0,20.5,4.5,27.3,11.8c8.5-1.7,16.5-4.8,23.8-9.1c-2.8,8.7-8.7,16.1-16.5,20.7c7.6-0.9,14.8-2.9,21.5-5.9
		C-643.3,457.9-649.6,464.5-656.9,469.8z"/>
</g>
<g id="XMLID_98_">
	<g id="XMLID_99_">
		<path id="XMLID_103_" class="st2" d="M288.4,165.1c-1-0.5-1.8,0-1.8,1.1v134l58.7,29.3c2.9,1.5,5.3,0,5.3-3.3v-129
			c0-0.6-0.4-1.2-0.9-1.5L288.4,165.1z"/>
		<path id="XMLID_102_" class="st3" d="M222.6,268.2l63-102.3c0.6-0.9,1.8-1.3,2.8-0.8l60.8,30.4c0.8,0.4,1,1.3,0.6,2l-63.2,102.7
			L222.6,268.2z"/>
		<path id="XMLID_101_" class="st4" d="M165.7,167.8c-3.9-1.9-5.2-0.5-2.9,3.2l59.9,97.3l64,32L223,196.9c-0.3-0.4-0.7-0.8-1.1-1
			L165.7,167.8z"/>
		<path id="XMLID_100_" class="st5" d="M222.6,326.3c0,3.3-2.4,4.7-5.3,3.3L162.2,302c-1.9-1-3.5-3.6-3.5-5.7V168.2
			c0-2.2,1.6-3.2,3.5-2.2l59.7,29.8c0.5,0.2,0.8,0.7,0.8,1.3V326.3z"/>
	</g>
</g>
</svg>
