<?xml version="1.0" encoding="utf-8"?>
<!-- Generator: Adobe Illustrator 19.2.1, SVG Export Plug-In . SVG Version: 6.00 Build 0)  -->
<svg version="1.1" id="Layer_1" xmlns="http://www.w3.org/2000/svg" xmlns:xlink="http://www.w3.org/1999/xlink" x="0px" y="0px"
	 viewBox="0 0 500 500" style="enable-background:new 0 0 500 500;" xml:space="preserve">
<style type="text/css">
	.st0{fill:#67CFA9;}
	.st1{fill:#9DE0C8;}
	.st2{fill:#D1F0E5;}
	.st3{fill:#FFFFFF;}
</style>
<g id="XMLID_98_">
	<g id="XMLID_99_">
		<path id="XMLID_103_" class="st0" d="M283.4,166.1c-1-0.5-1.8,0-1.8,1.1v134l58.7,29.3c2.9,1.5,5.3,0,5.3-3.3v-129
			c0-0.6-0.4-1.2-0.9-1.5L283.4,166.1z"/>
		<path id="XMLID_102_" class="st1" d="M217.6,269.2l63-102.3c0.6-0.9,1.8-1.3,2.8-0.8l60.8,30.4c0.8,0.4,1,1.3,0.6,2l-63.2,102.7
			L217.6,269.2z"/>
		<path id="XMLID_101_" class="st2" d="M160.7,168.8c-3.9-1.9-5.2-0.5-2.9,3.2l59.9,97.3l64,32L218,197.9c-0.3-0.4-0.7-0.8-1.1-1
			L160.7,168.8z"/>
		<path id="XMLID_100_" class="st3" d="M217.6,327.3c0,3.3-2.4,4.7-5.3,3.3L157.2,303c-1.9-1-3.5-3.6-3.5-5.7V169.2
			c0-2.2,1.6-3.2,3.5-2.2l59.7,29.8c0.5,0.2,0.8,0.7,0.8,1.3L217.6,327.3L217.6,327.3z"/>
	</g>
</g>
</svg>
