<?xml version="1.0" encoding="utf-8"?>
<svg version="1.1" id="Layer_1" x="0px" y="0px" viewBox="0 0 500 500" style="enable-background:new 0 0 500 500;" xmlns="http://www.w3.org/2000/svg">
  <style type="text/css">
	.st0{fill:#FFFFFF;}
	.st1{fill:#2AA9E0;}
	.st2{fill:#18FE89;}
	.st3{fill:#00E56B;}
	.st4{fill:#00C963;}
	.st5{fill:#00AC6A;}
</style>
  <g>
    <circle class="st0" cx="-729.5" cy="507" r="133"/>
    <path class="st1" d="M-912,324.5v364.9H-547V324.5H-912z M-656.9,469.8c0.1,1.6,0.1,3.2,0.1,4.8c0,49.5-37.7,106.5-106.5,106.5&#10;&#9;&#9;c-21.1,0-40.8-6.2-57.4-16.8c2.9,0.4,5.9,0.5,8.9,0.5c17.6,0,33.7-6,46.5-16c-16.4-0.3-30.2-11.1-35-26c2.3,0.4,4.6,0.7,7,0.7&#10;&#9;&#9;c3.4,0,6.7-0.4,9.9-1.3c-17.1-3.4-30-18.6-30-36.7c0-0.2,0-0.3,0-0.5c5.1,2.8,10.8,4.5,17,4.7c-10-6.7-16.6-18.2-16.6-31.2&#10;&#9;&#9;c0-6.9,1.8-13.3,5.1-18.8c18.5,22.7,46.1,37.6,77.2,39.1c-0.6-2.7-1-5.6-1-8.5c0-20.7,16.8-37.4,37.4-37.4&#10;&#9;&#9;c10.8,0,20.5,4.5,27.3,11.8c8.5-1.7,16.5-4.8,23.8-9.1c-2.8,8.7-8.7,16.1-16.5,20.7c7.6-0.9,14.8-2.9,21.5-5.9&#10;&#9;&#9;C-643.3,457.9-649.6,464.5-656.9,469.8z"/>
  </g>
  <g id="Monogram" fill-rule="nonzero" transform="matrix(1, 0, 0, 1, 159.179398, 139.141235)">
    <rect x="-160.133" width="500.954" height="500" y="-139.141"/>
    <path d="M 29.064 63.712 C 29.284 61.277 28.457 58.871 26.836 57.233 L 10.328 34.927 L 10.328 31.595 L 61.585 31.595 L 101.205 129.055 L 136.037 31.595 L 184.901 31.595 L 184.901 34.927 L 170.786 50.106 C 169.57 51.147 168.966 52.857 169.218 54.549 L 169.218 166.077 C 168.966 167.769 169.57 169.479 170.786 170.52 L 184.571 185.699 L 184.571 189.031 L 115.237 189.031 L 115.237 185.699 L 129.516 170.149 C 130.919 168.576 130.919 168.113 130.919 165.707 L 130.919 75.559 L 91.217 188.66 L 85.852 188.66 L 39.63 75.559 L 39.63 151.361 C 39.244 154.548 40.188 157.756 42.188 160.061 L 60.76 185.328 L 60.76 188.66 L 8.099 188.66 L 8.099 185.328 L 26.671 160.061 C 28.657 157.753 29.545 154.523 29.064 151.361 L 29.064 63.712 Z" id="Shape" style="fill: rgb(255, 255, 255);"/>
  </g>
</svg>