<?xml version="1.0" encoding="utf-8"?>
<svg id="Layer_1" style="enable-background:new 0 0 500 500;" x="0px" y="0px" viewBox="0 0 500 500" xmlns="http://www.w3.org/2000/svg">
  <style type="text/css">
	.st0{fill:#FFFFFF;}
	.st1{fill:#2AA9E0;}
	.st2{fill:#18FE89;}
	.st3{fill:#00E56B;}
	.st4{fill:#00C963;}
	.st5{fill:#00AC6A;}
</style>
  <g>
    <circle class="st0" cx="-729.5" cy="507" r="133"/>
    <path class="st1" d="M-912,324.5v364.9H-547V324.5H-912z M-656.9,469.8c0.1,1.6,0.1,3.2,0.1,4.8c0,49.5-37.7,106.5-106.5,106.5&#10;&#9;&#9;c-21.1,0-40.8-6.2-57.4-16.8c2.9,0.4,5.9,0.5,8.9,0.5c17.6,0,33.7-6,46.5-16c-16.4-0.3-30.2-11.1-35-26c2.3,0.4,4.6,0.7,7,0.7&#10;&#9;&#9;c3.4,0,6.7-0.4,9.9-1.3c-17.1-3.4-30-18.6-30-36.7c0-0.2,0-0.3,0-0.5c5.1,2.8,10.8,4.5,17,4.7c-10-6.7-16.6-18.2-16.6-31.2&#10;&#9;&#9;c0-6.9,1.8-13.3,5.1-18.8c18.5,22.7,46.1,37.6,77.2,39.1c-0.6-2.7-1-5.6-1-8.5c0-20.7,16.8-37.4,37.4-37.4&#10;&#9;&#9;c10.8,0,20.5,4.5,27.3,11.8c8.5-1.7,16.5-4.8,23.8-9.1c-2.8,8.7-8.7,16.1-16.5,20.7c7.6-0.9,14.8-2.9,21.5-5.9&#10;&#9;&#9;C-643.3,457.9-649.6,464.5-656.9,469.8z"/>
  </g>
  <path d="M 432.946 423.9 Z" style="stroke: black; fill: none;"/>
  <path d="M 274.795 170.589 Z" style="stroke: black; fill: none;"/>
  <path d="M 514.033 165.228 Z" style="stroke: black; fill: none;"/>
  <circle cx="104.583" cy="104.336" r="59.883" stroke-linecap="round" stroke-miterlimit="10" transform="matrix(1.560642, 0, 0, 1.56064, 93.484718, 83.768074)" style="fill: none; stroke: rgb(255, 255, 255); stroke-width: 5.1261;"/>
  <path d="M 275.913 287.595 C 275.343 281.318 275.561 276.937 275.561 271.2 C 278.403 269.71 283.497 260.2 284.357 252.166 C 286.594 251.984 290.117 249.802 291.149 241.194 C 291.706 236.572 289.494 233.969 288.146 233.152 C 291.784 222.213 299.338 188.376 274.175 184.879 C 271.584 180.331 264.953 178.028 256.336 178.028 C 221.858 178.664 217.701 204.065 225.258 233.152 C 223.915 233.969 221.703 236.572 222.256 241.194 C 223.292 249.802 226.811 251.984 229.048 252.166 C 229.903 260.196 235.2 269.71 238.049 271.2 C 238.049 276.937 238.263 281.318 237.695 287.595 C 232.786 300.795 207.567 301.828 193.019 314.557 C 208.229 329.873 232.879 340.825 258.89 340.825 C 284.903 340.825 315.48 320.289 320.568 314.686 C 306.109 301.839 280.833 300.841 275.913 287.595 Z" style="stroke: rgb(255, 255, 255); fill: rgb(255, 255, 255);"/>
  <path d="M 265.422 198.54 Z" style="stroke: black; fill: none;"/>
</svg>