<?xml version="1.0" encoding="utf-8"?>
<svg id="Layer_1" style="enable-background:new 0 0 500 500;" x="0px" y="0px" viewBox="0 0 500 500" xmlns="http://www.w3.org/2000/svg">
  <defs>
    <style type="text/css">
   
    .fil3 {fill:none}
    .fil0 {fill:#FFFA04}
    .fil1 {fill:#212121;fill-rule:nonzero}
    .fil2 {fill:#FFFFFE;fill-rule:nonzero}
   
  </style>
  </defs>
  <style type="text/css">
	.st0{fill:#FFFFFF;}
	.st1{fill:#2AA9E0;}
	.st2{fill:#18FE89;}
	.st3{fill:#00E56B;}
	.st4{fill:#00C963;}
	.st5{fill:#00AC6A;}
</style>
  <g>
    <circle class="st0" cx="-729.5" cy="507" r="133"/>
    <path class="st1" d="M-912,324.5v364.9H-547V324.5H-912z M-656.9,469.8c0.1,1.6,0.1,3.2,0.1,4.8c0,49.5-37.7,106.5-106.5,106.5&#10;&#9;&#9;c-21.1,0-40.8-6.2-57.4-16.8c2.9,0.4,5.9,0.5,8.9,0.5c17.6,0,33.7-6,46.5-16c-16.4-0.3-30.2-11.1-35-26c2.3,0.4,4.6,0.7,7,0.7&#10;&#9;&#9;c3.4,0,6.7-0.4,9.9-1.3c-17.1-3.4-30-18.6-30-36.7c0-0.2,0-0.3,0-0.5c5.1,2.8,10.8,4.5,17,4.7c-10-6.7-16.6-18.2-16.6-31.2&#10;&#9;&#9;c0-6.9,1.8-13.3,5.1-18.8c18.5,22.7,46.1,37.6,77.2,39.1c-0.6-2.7-1-5.6-1-8.5c0-20.7,16.8-37.4,37.4-37.4&#10;&#9;&#9;c10.8,0,20.5,4.5,27.3,11.8c8.5-1.7,16.5-4.8,23.8-9.1c-2.8,8.7-8.7,16.1-16.5,20.7c7.6-0.9,14.8-2.9,21.5-5.9&#10;&#9;&#9;C-643.3,457.9-649.6,464.5-656.9,469.8z"/>
  </g>
  <path class="fil2" d="M 208.247 231.449 L 208.246 231.449 C 207.508 219.688 206.589 205.059 210.552 196.169 C 215.099 185.974 221.661 178.901 229.734 174.369 C 237.763 169.86 247.241 167.896 257.678 167.896 C 262.229 167.896 273.544 168.686 284.272 175.598 C 290.798 179.803 297.095 186.26 301.508 196.153 C 305.559 205.235 304.605 219.647 303.853 231.005 C 303.779 232.13 303.706 233.225 303.643 234.236 C 303.917 234.293 304.228 234.338 304.581 234.358 C 305.472 234.31 306.454 234.134 307.518 233.833 C 308.659 233.509 309.868 233.049 311.139 232.454 C 311.786 232.15 312.449 231.952 313.077 231.825 C 313.869 231.664 314.605 231.619 315.18 231.619 L 315.18 231.612 C 315.901 231.612 316.643 231.684 317.369 231.824 C 318.059 231.956 318.731 232.15 319.354 232.401 L 319.363 232.404 C 321.235 233.073 322.782 234.107 323.886 235.372 C 325.067 236.725 325.737 238.334 325.771 240.055 L 325.771 240.063 C 325.811 242.217 324.913 244.181 323.09 245.943 C 321.474 247.506 319.106 248.907 315.998 250.134 L 315.992 250.134 C 315.64 250.273 315.215 250.422 314.746 250.579 C 314.018 250.822 313.71 250.921 313.402 251.018 C 311.828 251.516 309.85 252.145 308.197 252.981 C 306.735 253.721 305.491 254.619 305.027 255.714 C 304.81 256.223 304.75 256.837 304.843 257.551 C 304.952 258.381 305.268 259.333 305.791 260.397 L 305.794 260.395 C 305.81 260.427 305.805 260.424 305.861 260.547 L 305.864 260.545 C 305.878 260.576 305.899 260.622 305.924 260.683 C 306.131 261.166 308.737 267.113 314.116 273.452 C 319.447 279.733 327.486 286.349 338.527 288.169 C 339.884 288.391 341.047 289.107 341.85 290.108 C 342.654 291.112 343.101 292.402 343.025 293.772 C 343.004 294.141 342.948 294.52 342.856 294.905 C 342.762 295.298 342.643 295.664 342.5 295.996 L 342.496 295.995 C 341.427 298.485 338.83 300.566 334.646 302.263 C 330.997 303.743 326.018 304.988 319.663 306.019 C 319.455 306.73 319.196 307.922 319.016 308.744 L 319.013 308.759 C 318.891 309.314 318.76 309.902 318.555 310.756 L 318.553 310.755 C 318.38 311.475 318.198 312.176 318.001 312.843 L 317.999 312.842 C 317.605 314.185 316.89 315.245 315.902 315.985 C 314.906 316.732 313.686 317.123 312.291 317.123 L 312.195 317.123 L 312.166 317.116 L 312.096 317.115 L 312.096 317.122 C 311.553 317.122 310.918 317.077 310.199 316.989 C 309.522 316.905 308.752 316.779 307.896 316.611 C 306.652 316.368 305.335 316.135 303.896 315.963 C 302.476 315.793 300.921 315.684 299.173 315.684 C 298.158 315.684 297.13 315.727 296.098 315.814 C 295.031 315.904 293.984 316.035 292.963 316.204 C 289.09 316.847 285.595 319.316 281.54 322.18 L 281.536 322.175 L 281.523 322.185 L 281.523 322.192 C 272.515 328.562 264.3 331.743 256.02 331.74 C 247.739 331.737 239.53 328.551 230.533 322.19 L 230.534 322.19 L 230.533 322.189 C 226.481 319.325 222.981 316.852 219.094 316.204 L 219.094 316.202 C 218.074 316.034 217.027 315.904 215.963 315.814 C 214.931 315.727 213.904 315.684 212.889 315.684 C 211.042 315.684 209.415 315.823 207.993 316.014 C 206.611 316.198 205.284 316.458 204.167 316.677 C 203.384 316.83 202.656 316.972 202.022 317.071 C 201.296 317.182 200.614 317.254 199.965 317.254 C 198.372 317.254 197.16 316.806 196.24 316.137 L 196.24 316.131 C 195.014 315.237 194.383 314.01 194.061 312.916 C 193.831 312.131 193.65 311.433 193.495 310.782 C 193.345 310.148 193.196 309.465 193.049 308.791 L 193.042 308.756 C 192.861 307.931 192.602 306.743 192.394 306.034 C 186.04 305.004 181.062 303.757 177.414 302.275 C 173.225 300.573 170.626 298.484 169.557 295.984 L 169.557 295.977 C 169.398 295.602 169.277 295.242 169.196 294.901 C 169.111 294.544 169.057 294.169 169.035 293.775 C 168.96 292.405 169.407 291.115 170.212 290.111 C 171.015 289.109 172.177 288.394 173.535 288.17 C 184.571 286.353 192.61 279.738 197.941 273.456 C 203.315 267.124 205.929 261.162 206.137 260.677 L 206.141 260.679 C 206.205 260.525 206.218 260.497 206.228 260.475 L 206.23 260.477 L 206.244 260.448 L 206.259 260.419 C 206.788 259.345 207.108 258.386 207.218 257.55 C 207.311 256.839 207.251 256.228 207.038 255.72 L 207.035 255.721 C 206.028 253.35 201.595 251.941 198.66 251.01 L 198.658 251.01 L 198.656 251.016 C 198.418 250.941 198.175 250.863 197.326 250.58 C 196.803 250.406 196.36 250.252 196.062 250.134 C 192.377 248.679 190.017 247.081 188.548 245.504 C 186.348 243.14 186.05 240.801 186.407 238.924 C 186.813 236.789 188.199 235.028 190.008 233.784 C 191.91 232.475 194.318 231.72 196.501 231.72 C 197.107 231.72 197.71 231.78 198.302 231.901 C 198.893 232.023 199.454 232.206 199.981 232.454 C 201.35 233.096 202.649 233.58 203.868 233.906 C 205.015 234.213 206.073 234.367 207.032 234.367 C 207.587 234.367 208.045 234.316 208.421 234.238 C 208.383 233.625 208.342 232.969 208.301 232.322 L 208.247 231.465 L 208.247 231.458 L 208.247 231.449 Z" id="path-1"/>
  <path class="fil1" d="M 205.957 232.005 L 205.957 231.449 L 205.957 231.449 C 205.205 219.467 204.29 204.61 208.468 195.239 C 210.844 189.912 213.748 185.399 217.113 181.625 C 220.504 177.822 224.36 174.764 228.616 172.374 C 232.82 170.014 237.404 168.32 242.302 167.215 C 247.169 166.117 252.314 165.607 257.678 165.607 C 260.549 165.607 266.007 165.91 272.379 167.755 C 276.539 168.96 281.073 170.819 285.506 173.675 C 289.158 176.029 292.741 179.051 295.992 182.927 C 298.838 186.321 301.431 190.377 303.592 195.223 C 307.876 204.828 306.902 219.545 306.134 231.145 L 306.134 231.145 L 306.134 231.148 L 306.12 231.355 L 306.088 231.842 C 306.341 231.784 306.613 231.714 306.902 231.633 C 307.386 231.495 307.909 231.32 308.467 231.108 C 309.071 230.877 309.64 230.637 310.172 230.388 C 310.593 230.191 310.989 230.035 311.362 229.914 L 311.371 229.914 C 311.78 229.782 312.204 229.675 312.631 229.588 C 312.718 229.571 312.805 229.554 312.89 229.539 L 312.89 229.322 L 315.18 229.322 C 315.559 229.322 315.997 229.346 316.484 229.393 C 316.951 229.438 317.391 229.501 317.798 229.579 C 318.185 229.653 318.597 229.753 319.026 229.878 C 319.396 229.986 319.747 230.104 320.075 230.231 L 320.131 230.248 C 321.229 230.64 322.239 231.143 323.145 231.738 C 324.077 232.349 324.903 233.067 325.603 233.869 C 326.369 234.748 326.972 235.716 327.386 236.747 C 327.801 237.776 328.029 238.871 328.051 240.01 L 328.059 240.055 L 328.059 240.063 L 328.051 240.063 C 328.073 241.467 327.789 242.813 327.205 244.096 C 326.637 245.342 325.792 246.508 324.673 247.589 C 323.734 248.497 322.597 249.346 321.264 250.133 C 319.968 250.9 318.492 251.61 316.839 252.263 L 316.808 252.269 C 316.61 252.346 316.397 252.425 316.172 252.505 C 316.065 252.543 315.817 252.627 315.47 252.743 L 314.623 253.026 C 314.092 253.199 314.148 253.182 314.091 253.2 C 313.23 253.473 312.26 253.781 311.598 254.019 C 310.796 254.308 309.98 254.638 309.225 255.02 C 308.626 255.323 308.09 255.644 307.686 255.976 C 307.408 256.204 307.207 256.421 307.128 256.608 L 307.125 256.607 C 307.109 256.647 307.097 256.704 307.09 256.779 C 307.076 256.915 307.082 257.074 307.106 257.255 C 307.142 257.533 307.216 257.839 307.326 258.171 C 307.355 258.257 307.386 258.344 307.419 258.433 L 307.872 259.446 L 307.874 259.45 L 307.874 259.45 L 307.898 259.504 L 307.918 259.548 L 307.92 259.553 L 307.922 259.559 L 307.947 259.616 L 307.973 259.673 L 307.992 259.699 L 308.026 259.779 L 308.026 259.788 C 308.124 260.017 308.789 261.537 310.057 263.736 C 311.346 265.97 313.261 268.913 315.86 271.976 C 318.672 275.29 322.272 278.699 326.7 281.368 C 330.232 283.497 334.29 285.156 338.893 285.915 C 339.855 286.073 340.74 286.398 341.521 286.853 C 342.33 287.326 343.043 287.947 343.629 288.677 C 344.212 289.402 344.663 290.236 344.951 291.136 C 345.232 292.009 345.359 292.942 345.306 293.897 C 345.291 294.173 345.266 294.429 345.23 294.663 L 345.23 294.672 C 345.202 294.861 345.15 295.115 345.074 295.432 C 345.002 295.734 344.933 295.984 344.87 296.181 C 344.783 296.447 344.693 296.687 344.601 296.899 L 343.739 298.898 L 343.5 298.808 C 342.879 299.656 342.1 300.456 341.161 301.206 C 339.667 302.4 337.784 303.458 335.505 304.382 C 333.585 305.161 331.326 305.875 328.724 306.527 C 326.59 307.061 324.188 307.56 321.517 308.022 C 321.449 308.323 321.342 308.816 321.251 309.227 L 321.243 309.236 L 321.242 309.239 L 321.249 309.241 L 321.043 310.146 C 320.972 310.454 320.886 310.821 320.772 311.292 L 320.257 313.43 L 320.211 313.421 L 320.192 313.487 L 319.572 315.592 L 319.31 315.527 C 319.234 315.655 319.156 315.781 319.074 315.904 C 318.58 316.644 317.976 317.281 317.271 317.81 C 316.555 318.346 315.768 318.751 314.918 319.019 C 314.743 319.075 314.565 319.124 314.385 319.168 L 314.385 319.412 L 312.472 319.412 C 312.412 319.413 312.351 319.414 312.291 319.414 L 312.195 319.414 L 312.182 319.412 L 312.096 319.412 C 311.802 319.412 311.454 319.397 311.054 319.369 L 311.054 319.368 C 310.66 319.341 310.281 319.304 309.922 319.26 C 309.638 319.225 309.247 319.167 308.747 319.085 C 308.258 319.005 307.826 318.928 307.457 318.856 C 306.778 318.723 306.135 318.602 305.602 318.514 C 305.02 318.418 304.372 318.323 303.627 318.235 C 302.925 318.152 302.221 318.084 301.523 318.041 C 300.831 317.997 300.054 317.973 299.173 317.973 C 298.585 317.973 298.104 317.981 297.731 317.997 C 297.35 318.013 296.868 318.047 296.285 318.095 C 295.787 318.137 295.288 318.189 294.788 318.251 C 294.219 318.322 293.731 318.391 293.33 318.458 C 290.038 319.005 286.79 321.271 283.037 323.92 L 281.252 325.705 L 280.986 325.333 C 276.991 327.999 273.121 330.052 269.303 331.494 C 264.836 333.18 260.445 334.022 256.02 334.021 C 251.593 334.019 247.204 333.175 242.741 331.487 C 238.361 329.831 233.913 327.372 229.288 324.108 L 229.262 324.094 L 229.262 324.093 L 229.217 324.057 C 225.392 321.355 222.088 319.019 218.718 318.458 L 218.413 318.407 C 218.08 318.356 217.698 318.304 217.268 318.251 C 216.77 318.189 216.272 318.137 215.776 318.095 C 215.192 318.047 214.709 318.013 214.33 317.997 C 213.958 317.981 213.478 317.973 212.889 317.973 C 211.991 317.973 211.18 318.005 210.443 318.058 C 209.628 318.116 208.918 318.192 208.288 318.277 C 207.074 318.439 205.742 318.699 204.616 318.918 L 204.617 318.92 L 204.614 318.921 L 204.605 318.921 C 204.393 318.963 204.196 319.001 203.459 319.139 C 203.005 319.224 202.621 319.293 202.371 319.332 L 202.371 319.333 C 202.052 319.383 201.664 319.431 201.17 319.476 C 200.704 319.519 200.298 319.543 199.965 319.543 C 198.981 319.543 198.091 319.406 197.286 319.165 C 196.381 318.894 195.589 318.483 194.898 317.98 L 193.951 317.289 L 193.951 317.159 C 193.596 316.801 193.29 316.422 193.027 316.034 C 192.465 315.206 192.102 314.35 191.87 313.56 C 191.745 313.135 191.637 312.743 191.541 312.38 C 191.411 311.889 191.324 311.546 191.268 311.31 C 191.251 311.238 191.191 310.958 191.043 310.293 C 190.722 308.844 190.897 309.659 190.814 309.274 L 190.819 309.273 L 190.814 309.249 L 190.81 309.238 L 190.806 309.239 L 190.799 309.21 L 190.797 309.204 L 190.796 309.203 L 190.797 309.203 C 190.72 308.851 190.631 308.438 190.539 308.037 C 187.868 307.575 185.469 307.077 183.335 306.543 C 180.732 305.889 178.474 305.174 176.555 304.394 C 174.261 303.462 172.373 302.401 170.884 301.209 C 169.281 299.923 168.14 298.481 167.454 296.878 L 167.448 296.847 C 167.343 296.598 167.255 296.366 167.182 296.149 C 167.086 295.863 167.015 295.622 166.969 295.428 C 166.915 295.205 166.869 294.952 166.829 294.673 C 166.794 294.434 166.769 294.176 166.754 293.901 C 166.702 292.944 166.83 292.011 167.11 291.139 C 167.399 290.238 167.851 289.405 168.432 288.68 C 169.018 287.949 169.731 287.328 170.54 286.856 C 171.321 286.4 172.206 286.075 173.169 285.916 C 177.769 285.159 181.827 283.501 185.358 281.372 C 189.785 278.703 193.385 275.295 196.197 271.981 C 198.793 268.921 200.71 265.976 202 263.738 C 203.255 261.562 203.934 260.008 204.035 259.774 L 204.754 258.101 C 204.855 257.788 204.922 257.506 204.955 257.254 C 204.979 257.074 204.984 256.916 204.971 256.782 C 204.966 256.735 204.96 256.695 204.953 256.662 L 204.933 256.616 C 204.685 256.031 203.74 255.434 202.587 254.883 C 201.684 254.452 200.669 254.075 199.695 253.744 L 197.968 253.198 C 197.918 253.183 198.061 253.228 197.514 253.05 L 196.602 252.745 L 196.603 252.742 C 196.222 252.616 195.96 252.527 195.859 252.491 C 195.523 252.374 195.298 252.294 195.221 252.263 C 193.364 251.529 191.789 250.739 190.454 249.917 C 188.943 248.986 187.773 248.023 186.876 247.06 C 185.633 245.725 184.868 244.369 184.439 243.054 C 183.906 241.413 183.903 239.865 184.162 238.504 C 184.42 237.146 184.973 235.909 185.743 234.812 C 186.54 233.672 187.561 232.696 188.711 231.905 C 189.843 231.127 191.125 230.512 192.448 230.091 C 193.803 229.661 195.191 229.43 196.501 229.43 C 196.835 229.43 197.212 229.451 197.631 229.493 C 198.006 229.531 198.384 229.589 198.759 229.666 C 199.176 229.751 199.551 229.849 199.881 229.958 L 199.881 229.96 C 200.225 230.073 200.581 230.216 200.947 230.388 C 201.575 230.681 202.185 230.939 202.775 231.16 C 203.321 231.364 203.882 231.543 204.459 231.697 C 204.951 231.83 205.414 231.927 205.843 231.989 L 205.956 232.005 Z M 210.527 231.305 L 210.534 231.432 L 210.537 231.458 L 210.537 231.464 L 210.582 232.179 L 210.582 232.188 L 210.701 234.104 L 210.824 236.071 L 208.885 236.473 C 208.629 236.526 208.34 236.572 208.018 236.604 C 207.672 236.638 207.339 236.657 207.032 236.657 C 206.461 236.657 205.849 236.609 205.199 236.515 C 204.573 236.424 203.932 236.29 203.278 236.116 C 202.634 235.943 201.935 235.717 201.183 235.435 C 200.478 235.172 199.755 234.867 199.015 234.519 C 198.858 234.446 198.672 234.374 198.46 234.305 L 198.451 234.305 C 198.222 234.229 198.019 234.173 197.846 234.138 C 197.629 234.093 197.407 234.059 197.183 234.036 C 197.001 234.018 196.773 234.009 196.501 234.009 C 195.62 234.009 194.704 234.159 193.827 234.438 C 192.933 234.721 192.068 235.137 191.305 235.662 C 190.578 236.161 189.948 236.755 189.481 237.423 C 189.075 238.002 188.784 238.647 188.652 239.345 C 188.52 240.038 188.519 240.821 188.786 241.642 C 189.022 242.366 189.47 243.142 190.22 243.947 C 190.863 244.638 191.721 245.339 192.852 246.036 C 193.918 246.693 195.251 247.354 196.902 248.006 C 197.122 248.093 197.269 248.149 197.361 248.181 C 197.686 248.295 197.904 248.37 198.042 248.417 L 198.051 248.417 C 198.167 248.455 198.506 248.566 198.927 248.703 C 199.082 248.754 199.056 248.742 199.345 248.833 L 199.344 248.836 L 199.349 248.837 C 200.884 249.324 202.812 249.937 204.555 250.768 C 205.816 251.371 206.975 252.094 207.855 252.978 L 208.29 252.815 L 209.119 254.786 L 209.137 254.827 L 209.136 254.827 L 209.139 254.835 C 209.338 255.305 209.463 255.806 209.515 256.335 C 209.562 256.812 209.55 257.316 209.48 257.845 C 209.406 258.411 209.266 259.004 209.059 259.62 C 208.867 260.197 208.619 260.796 208.315 261.413 L 208.308 261.431 L 208.31 261.432 L 208.297 261.461 L 208.285 261.485 L 208.252 261.564 L 207.34 263.737 L 207.225 263.686 C 206.889 264.337 206.465 265.121 205.953 266.01 C 204.541 268.458 202.462 271.66 199.685 274.932 C 196.591 278.578 192.621 282.335 187.718 285.29 C 183.739 287.689 179.144 289.561 173.902 290.423 C 173.529 290.486 173.173 290.619 172.847 290.809 C 172.511 291.005 172.222 291.254 171.992 291.542 C 171.756 291.836 171.573 292.173 171.456 292.534 C 171.344 292.882 171.294 293.26 171.315 293.65 C 171.323 293.767 171.336 293.894 171.354 294.029 C 171.368 294.125 171.391 294.24 171.423 294.373 C 171.457 294.52 171.487 294.63 171.511 294.701 C 171.557 294.839 171.606 294.969 171.657 295.09 L 171.658 295.09 C 172.041 295.987 172.736 296.84 173.746 297.649 C 174.873 298.551 176.379 299.386 178.272 300.155 C 180.002 300.858 182.057 301.508 184.444 302.106 C 186.91 302.725 189.677 303.282 192.752 303.781 L 194.181 304.012 L 194.585 305.399 C 194.839 306.267 195.097 307.45 195.277 308.273 L 195.286 308.309 L 195.286 308.31 L 195.285 308.31 C 195.514 309.367 195.324 308.53 195.497 309.31 L 195.722 310.255 C 195.821 310.669 195.901 311.001 195.959 311.218 C 196.05 311.561 196.147 311.913 196.253 312.273 C 196.372 312.678 196.547 313.101 196.801 313.476 C 197.001 313.772 197.257 314.052 197.581 314.288 L 197.735 314.399 C 197.976 314.552 198.26 314.684 198.592 314.783 C 198.977 314.898 199.432 314.964 199.965 314.964 C 200.28 314.964 200.54 314.952 200.759 314.932 C 200.949 314.915 201.266 314.871 201.673 314.808 L 201.682 314.808 C 202.066 314.749 202.361 314.697 202.618 314.65 L 203.719 314.433 L 203.719 314.431 L 203.722 314.431 L 203.731 314.431 C 204.84 314.214 206.154 313.958 207.698 313.752 C 208.491 313.645 209.305 313.555 210.121 313.497 C 211.014 313.432 211.94 313.394 212.889 313.394 C 213.313 313.394 213.855 313.408 214.508 313.435 C 215.154 313.463 215.701 313.497 216.151 313.534 C 216.719 313.582 217.276 313.64 217.822 313.707 C 218.294 313.766 218.842 313.848 219.461 313.949 L 219.47 313.951 L 219.47 313.95 L 219.501 313.956 L 221.673 314.314 L 221.65 314.477 C 225.105 315.568 228.229 317.763 231.738 320.243 L 234.392 321.57 L 234.104 321.858 C 237.633 324.172 241.03 325.957 244.35 327.212 C 248.31 328.709 252.166 329.458 256.02 329.46 C 259.874 329.461 263.732 328.714 267.694 327.219 C 271.591 325.747 275.595 323.545 279.797 320.612 L 280.199 320.324 L 280.213 320.314 L 282.067 318.99 L 282.081 319.009 C 285.607 316.562 288.844 314.574 292.597 313.95 C 293.214 313.848 293.76 313.767 294.234 313.708 C 294.781 313.64 295.34 313.582 295.91 313.534 C 296.359 313.497 296.908 313.463 297.552 313.436 C 298.206 313.408 298.747 313.394 299.173 313.394 C 300.039 313.394 300.914 313.425 301.791 313.48 C 302.662 313.534 303.447 313.606 304.164 313.692 C 304.858 313.774 305.589 313.883 306.335 314.007 C 307.131 314.139 307.769 314.256 308.334 314.366 C 308.821 314.461 309.203 314.531 309.481 314.577 C 309.751 314.622 310.084 314.668 310.476 314.717 C 310.835 314.761 311.131 314.792 311.367 314.808 L 311.376 314.808 C 311.606 314.824 311.847 314.832 312.096 314.832 L 312.096 314.835 L 312.122 314.835 L 312.193 314.835 L 312.195 314.836 L 312.195 314.834 L 312.291 314.834 C 312.758 314.834 313.182 314.772 313.559 314.655 C 313.922 314.54 314.25 314.374 314.534 314.161 C 314.82 313.947 315.071 313.68 315.282 313.364 C 315.502 313.033 315.68 312.646 315.808 312.207 L 315.81 312.199 L 315.809 312.199 C 315.899 311.898 315.988 311.575 316.076 311.237 C 316.201 310.764 316.283 310.443 316.334 310.227 L 316.337 310.219 L 316.337 310.219 C 316.429 309.837 316.512 309.482 316.589 309.144 C 316.614 309.033 316.655 308.835 316.777 308.276 L 316.786 308.267 L 316.787 308.263 L 316.78 308.262 C 316.85 307.944 316.932 307.563 317.102 306.83 C 317.217 306.335 317.343 305.827 317.472 305.384 L 317.875 303.997 L 319.305 303.765 C 322.381 303.266 325.15 302.709 327.615 302.091 C 330.003 301.493 332.059 300.844 333.787 300.144 C 335.692 299.371 337.2 298.54 338.317 297.647 C 339.314 296.85 340.005 295.999 340.395 295.092 L 340.463 294.932 C 340.486 294.874 340.505 294.819 340.522 294.767 C 340.578 294.599 340.616 294.469 340.638 294.377 C 340.654 294.31 340.676 294.181 340.705 293.992 L 340.706 293.992 C 340.726 293.853 340.74 293.737 340.745 293.647 C 340.767 293.255 340.717 292.878 340.604 292.531 C 340.488 292.169 340.306 291.833 340.07 291.539 C 339.84 291.252 339.55 291.003 339.215 290.807 C 338.889 290.616 338.534 290.483 338.16 290.423 C 332.915 289.557 328.318 287.685 324.338 285.286 C 319.436 282.33 315.466 278.574 312.372 274.928 C 309.593 271.653 307.514 268.453 306.104 266.008 C 305.552 265.049 305.102 264.209 304.752 263.524 L 304.722 263.537 L 304.276 262.563 C 304.022 262.037 303.873 261.697 303.826 261.585 L 303.822 261.587 L 303.788 261.506 L 303.791 261.505 L 303.787 261.495 L 303.722 261.355 C 303.427 260.75 303.185 260.166 302.997 259.602 C 302.792 258.985 302.652 258.399 302.581 257.845 C 302.51 257.314 302.499 256.808 302.547 256.332 C 302.6 255.799 302.726 255.297 302.925 254.829 L 302.925 254.82 C 303.31 253.913 303.964 253.131 304.789 252.452 C 305.488 251.878 306.305 251.379 307.168 250.941 C 308.067 250.487 309.066 250.084 310.06 249.726 C 311.194 249.317 312 249.062 312.714 248.836 C 313.078 248.721 313.093 248.717 313.21 248.679 C 313.601 248.553 313.918 248.449 314.021 248.415 C 314.143 248.374 314.343 248.304 314.652 248.195 C 314.839 248.128 315.01 248.065 315.158 248.006 L 315.158 248.006 C 316.61 247.432 317.872 246.829 318.939 246.199 C 319.972 245.588 320.83 244.954 321.507 244.298 C 322.212 243.617 322.729 242.917 323.055 242.2 C 323.358 241.535 323.504 240.835 323.489 240.1 L 323.489 240.098 L 323.48 240.063 L 323.48 240.055 L 323.488 240.055 C 323.472 239.504 323.355 238.963 323.147 238.446 C 322.923 237.889 322.593 237.36 322.169 236.875 C 321.755 236.4 321.242 235.96 320.641 235.565 C 320.038 235.17 319.352 234.83 318.593 234.559 L 318.596 234.553 L 318.505 234.521 C 318.247 234.417 317.997 234.33 317.755 234.26 C 317.518 234.192 317.245 234.127 316.939 234.068 C 316.618 234.007 316.322 233.963 316.055 233.937 C 315.813 233.913 315.521 233.901 315.18 233.901 L 315.18 233.9 C 314.937 233.9 314.649 233.911 314.325 233.942 C 314.064 233.968 313.794 234.006 313.525 234.06 C 313.294 234.107 313.043 234.171 312.774 234.259 L 312.775 234.262 C 312.527 234.342 312.3 234.428 312.104 234.519 C 311.366 234.865 310.696 235.153 310.094 235.383 C 309.444 235.63 308.79 235.846 308.135 236.033 C 307.562 236.196 306.978 236.33 306.386 236.435 L 306.386 236.445 C 305.835 236.543 305.271 236.608 304.697 236.638 L 304.456 236.638 C 304.258 236.627 304.042 236.605 303.814 236.575 C 303.56 236.543 303.348 236.508 303.178 236.472 L 301.239 236.065 L 301.362 234.102 C 301.431 233.004 301.494 232.046 301.559 231.07 L 301.572 230.862 L 301.572 230.862 L 301.572 230.859 C 302.308 219.743 303.242 205.642 299.424 197.083 C 297.453 192.664 295.086 188.961 292.486 185.861 C 289.553 182.363 286.325 179.64 283.037 177.521 C 279.001 174.92 274.882 173.23 271.11 172.137 C 265.322 170.461 260.316 170.186 257.678 170.186 C 252.604 170.186 247.791 170.657 243.304 171.669 C 238.847 172.674 234.677 174.215 230.851 176.363 C 227.034 178.506 223.574 181.251 220.529 184.666 C 217.458 188.11 214.806 192.232 212.636 197.099 C 209.133 204.956 209.711 218.059 210.393 229.159 L 210.402 229.159 L 210.518 231.157 L 210.527 231.305 Z M 323.489 240.098 L 323.489 240.098 M 323.489 240.1 L 323.489 240.098 M 208.316 261.413 L 208.315 261.413" id="path-2"/>
</svg>